<svg xmlns="http://www.w3.org/2000/svg" xmlns:xlink="http://www.w3.org/1999/xlink" width="500" zoomAndPan="magnify" viewBox="0 0 375 374.999991" height="500" preserveAspectRatio="xMidYMid meet" version="1.0"><defs><g/></defs><g fill="#ffffff" fill-opacity="1"><g transform="translate(83.80078, 161.883109)"><g><path d="M 7.234375 0.363281 C 10.925781 0.363281 13.164062 -1.25 13.164062 -3.851562 C 13.164062 -6.089844 11.5 -7.519531 8.117188 -8.195312 C 5.777344 -8.664062 5.046875 -9.054688 5.046875 -9.886719 C 5.046875 -10.691406 5.777344 -11.160156 6.945312 -11.160156 C 8.273438 -11.160156 9.082031 -10.5625 9.15625 -9.523438 L 12.929688 -9.523438 C 12.75 -12.410156 10.613281 -14.023438 6.972656 -14.023438 C 3.304688 -14.023438 1.222656 -12.539062 1.222656 -9.886719 C 1.222656 -7.625 2.785156 -6.269531 6.269531 -5.644531 C 8.378906 -5.28125 9.261719 -4.734375 9.261719 -3.875 C 9.261719 -3.070312 8.535156 -2.574219 7.285156 -2.574219 C 5.828125 -2.574219 4.941406 -3.277344 4.917969 -4.398438 L 1.039062 -4.398438 C 1.039062 -1.535156 3.488281 0.363281 7.234375 0.363281 Z M 7.234375 0.363281 "/></g></g></g><g fill="#ffffff" fill-opacity="1"><g transform="translate(98.031335, 161.883109)"><g><path d="M 1.976562 0 L 5.933594 0 L 5.933594 -13.660156 L 1.976562 -13.660156 Z M 1.40625 -18.082031 C 1.40625 -16.625 2.445312 -15.609375 3.953125 -15.609375 C 5.464844 -15.609375 6.503906 -16.625 6.503906 -18.082031 C 6.503906 -19.539062 5.464844 -20.554688 3.953125 -20.554688 C 2.445312 -20.554688 1.40625 -19.539062 1.40625 -18.082031 Z M 1.40625 -18.082031 "/></g></g></g><g fill="#ffffff" fill-opacity="1"><g transform="translate(105.940095, 161.883109)"><g><path d="M 6.53125 0.261719 C 8.558594 0.261719 10.226562 -0.390625 11.394531 -1.585938 L 11.839844 0 L 14.777344 0 L 14.777344 -8.222656 C 14.777344 -11.839844 12.332031 -14.023438 8.246094 -14.023438 C 4.761719 -14.023438 2.472656 -12.359375 1.976562 -9.390625 L 5.777344 -9.390625 C 6.011719 -10.355469 7 -11.003906 8.273438 -11.003906 C 9.835938 -11.003906 10.902344 -10.121094 10.902344 -8.769531 L 10.902344 -8.144531 L 5.957031 -8.144531 C 3.121094 -8.144531 1.300781 -6.503906 1.300781 -3.980469 C 1.300781 -1.351562 3.304688 0.261719 6.53125 0.261719 Z M 5.203125 -4.136719 C 5.203125 -5.074219 5.984375 -5.671875 7.179688 -5.671875 L 10.925781 -5.671875 C 10.847656 -3.824219 9.417969 -2.574219 7.441406 -2.574219 C 6.089844 -2.574219 5.203125 -3.199219 5.203125 -4.136719 Z M 5.203125 -4.136719 "/></g></g></g><g fill="#ffffff" fill-opacity="1"><g transform="translate(122.434005, 161.883109)"><g><path d="M 1.976562 0 L 5.933594 0 L 5.933594 -6.035156 C 5.933594 -8.976562 7.3125 -10.070312 9.574219 -10.070312 L 11.082031 -10.070312 L 11.082031 -13.660156 L 9.601562 -13.660156 C 7.597656 -13.660156 6.320312 -13.113281 5.4375 -11.839844 L 4.917969 -13.660156 L 1.976562 -13.660156 Z M 1.976562 0 "/></g></g></g><g fill="#ffffff" fill-opacity="1"><g transform="translate(134.401194, 161.883109)"><g><path d="M 1.976562 0 L 5.933594 0 L 5.933594 -7.179688 C 5.933594 -9.339844 7.128906 -10.640625 8.949219 -10.640625 C 10.640625 -10.640625 11.65625 -9.496094 11.65625 -7.492188 L 11.65625 0 L 15.609375 0 L 15.609375 -7.882812 C 15.609375 -11.683594 13.476562 -14.023438 9.9375 -14.023438 C 8.402344 -14.023438 6.972656 -13.554688 5.933594 -12.617188 L 5.933594 -19.253906 L 1.976562 -19.253906 Z M 1.976562 0 "/></g></g></g><g fill="#ffffff" fill-opacity="1"><g transform="translate(151.727605, 161.883109)"><g><path d="M 8.429688 0.363281 C 11.785156 0.363281 14.441406 -1.351562 15.636719 -4.242188 L 11.628906 -4.242188 C 10.980469 -3.332031 9.808594 -2.808594 8.507812 -2.808594 C 6.710938 -2.808594 5.308594 -3.824219 4.941406 -5.699219 L 15.898438 -5.699219 C 16.128906 -10.691406 13.164062 -14.023438 8.480469 -14.023438 C 4.058594 -14.023438 1.015625 -11.082031 1.015625 -6.84375 C 1.015625 -2.574219 4.03125 0.363281 8.429688 0.363281 Z M 4.96875 -8.195312 C 5.410156 -9.859375 6.765625 -10.875 8.507812 -10.875 C 10.328125 -10.875 11.628906 -9.859375 12.070312 -8.195312 Z M 4.96875 -8.195312 "/></g></g></g><g fill="#ffffff" fill-opacity="1"><g transform="translate(168.611759, 161.883109)"><g><path d="M 1.976562 0 L 5.933594 0 L 5.933594 -13.660156 L 1.976562 -13.660156 Z M 1.40625 -18.082031 C 1.40625 -16.625 2.445312 -15.609375 3.953125 -15.609375 C 5.464844 -15.609375 6.503906 -16.625 6.503906 -18.082031 C 6.503906 -19.539062 5.464844 -20.554688 3.953125 -20.554688 C 2.445312 -20.554688 1.40625 -19.539062 1.40625 -18.082031 Z M 1.40625 -18.082031 "/></g></g></g><g fill="#ffffff" fill-opacity="1"><g transform="translate(176.531242, 161.883109)"><g/></g></g><g fill="#ffffff" fill-opacity="1"><g transform="translate(179.976539, 161.883109)"><g><path d="M 5.28125 0 L 7.390625 0 L 11.292969 -10.277344 L 13.0625 -5.566406 L 15.21875 0 L 17.300781 0 L 22.140625 -13.503906 L 19.851562 -13.503906 L 17.664062 -7.390625 L 16.234375 -3.277344 L 12.28125 -13.503906 L 10.277344 -13.503906 L 7.960938 -7.390625 L 6.375 -3.253906 L 4.917969 -7.390625 L 2.757812 -13.503906 L 0.441406 -13.503906 Z M 5.28125 0 "/></g></g></g><g fill="#ffffff" fill-opacity="1"><g transform="translate(202.558112, 161.883109)"><g><path d="M 6.84375 0.207031 C 9.027344 0.207031 10.746094 -0.496094 11.96875 -1.875 L 12.203125 0 L 13.996094 0 L 13.996094 -8.585938 C 13.996094 -11.707031 11.628906 -13.839844 8.089844 -13.839844 C 5.152344 -13.839844 2.941406 -12.253906 2.339844 -9.652344 L 4.554688 -9.652344 C 4.996094 -10.980469 6.375 -11.8125 8.117188 -11.8125 C 10.40625 -11.8125 11.8125 -10.535156 11.8125 -8.429688 L 11.8125 -7.933594 L 6.296875 -7.933594 C 3.488281 -7.933594 1.640625 -6.347656 1.640625 -3.902344 C 1.640625 -1.351562 3.589844 0.207031 6.84375 0.207031 Z M 3.824219 -3.929688 C 3.824219 -5.203125 4.867188 -6.011719 6.375 -6.011719 L 11.839844 -6.011719 C 11.761719 -3.511719 9.730469 -1.742188 6.921875 -1.742188 C 5.019531 -1.742188 3.824219 -2.601562 3.824219 -3.929688 Z M 3.824219 -3.929688 "/></g></g></g><g fill="#ffffff" fill-opacity="1"><g transform="translate(218.687803, 161.883109)"><g><path d="M 2.417969 0 L 4.605469 0 L 4.605469 -6.269531 C 4.605469 -10.121094 6.53125 -11.472656 8.976562 -11.472656 L 10.304688 -11.472656 L 10.304688 -13.503906 L 9.082031 -13.503906 C 6.789062 -13.503906 5.4375 -12.773438 4.476562 -11.160156 L 4.214844 -13.503906 L 2.417969 -13.503906 Z M 2.417969 0 "/></g></g></g><g fill="#ffffff" fill-opacity="1"><g transform="translate(230.030625, 161.883109)"><g><path d="M 2.417969 0 L 4.605469 0 L 4.605469 -5.828125 L 6.21875 -5.828125 C 6.84375 -5.828125 7.414062 -5.855469 7.933594 -5.957031 L 11.65625 0 L 14.257812 0 L 10.042969 -6.6875 C 11.03125 -7.3125 11.734375 -8.324219 12.28125 -9.808594 L 13.632812 -13.503906 L 11.292969 -13.503906 L 10.277344 -10.613281 C 9.523438 -8.429688 8.480469 -7.855469 6.296875 -7.855469 L 4.605469 -7.855469 L 4.605469 -19.253906 L 2.417969 -19.253906 Z M 2.417969 0 "/></g></g></g><g fill="#ffffff" fill-opacity="1"><g transform="translate(245.197742, 161.883109)"><g><path d="M 8.507812 0.339844 C 12.695312 0.339844 15.664062 -2.628906 15.664062 -6.765625 C 15.664062 -10.902344 12.695312 -13.839844 8.507812 -13.839844 C 4.320312 -13.839844 1.351562 -10.902344 1.351562 -6.765625 C 1.351562 -2.628906 4.320312 0.339844 8.507812 0.339844 Z M 3.539062 -6.765625 C 3.539062 -9.703125 5.59375 -11.761719 8.507812 -11.761719 C 11.421875 -11.761719 13.476562 -9.703125 13.476562 -6.765625 C 13.476562 -3.796875 11.421875 -1.769531 8.507812 -1.769531 C 5.59375 -1.769531 3.539062 -3.796875 3.539062 -6.765625 Z M 3.539062 -6.765625 "/></g></g></g><g fill="#ffffff" fill-opacity="1"><g transform="translate(262.211969, 161.883109)"><g><path d="M 3.71875 -14.882812 L 3.71875 -13.503906 L 0.78125 -13.503906 L 0.78125 -11.5 L 3.71875 -11.5 L 3.71875 0 L 5.90625 0 L 5.90625 -11.5 L 10.613281 -11.5 L 10.613281 -13.503906 L 5.90625 -13.503906 L 5.90625 -14.75 C 5.90625 -16.703125 6.738281 -17.535156 8.636719 -17.535156 L 10.746094 -17.535156 L 10.746094 -19.589844 L 8.429688 -19.589844 C 5.386719 -19.589844 3.71875 -17.953125 3.71875 -14.882812 Z M 3.71875 -14.882812 "/></g></g></g><g fill="#ffffff" fill-opacity="1"><g transform="translate(273.216584, 161.883109)"><g><path d="M 3.71875 -14.882812 L 3.71875 -13.503906 L 0.78125 -13.503906 L 0.78125 -11.5 L 3.71875 -11.5 L 3.71875 0 L 5.90625 0 L 5.90625 -11.5 L 10.613281 -11.5 L 10.613281 -13.503906 L 5.90625 -13.503906 L 5.90625 -14.75 C 5.90625 -16.703125 6.738281 -17.535156 8.636719 -17.535156 L 10.746094 -17.535156 L 10.746094 -19.589844 L 8.429688 -19.589844 C 5.386719 -19.589844 3.71875 -17.953125 3.71875 -14.882812 Z M 3.71875 -14.882812 "/></g></g></g><g fill="#ff3131" fill-opacity="1"><g transform="translate(284.242954, 161.883109)"><g><path d="M 3.488281 0.285156 C 4.890625 0.285156 5.90625 -0.703125 5.90625 -2.054688 C 5.90625 -3.410156 4.890625 -4.421875 3.488281 -4.421875 C 2.054688 -4.421875 1.066406 -3.410156 1.066406 -2.054688 C 1.066406 -0.703125 2.054688 0.285156 3.488281 0.285156 Z M 3.488281 0.285156 "/></g></g></g></svg>