<svg xmlns="http://www.w3.org/2000/svg" xmlns:xlink="http://www.w3.org/1999/xlink" width="220" zoomAndPan="magnify" viewBox="0 0 165 36.000001" height="48" preserveAspectRatio="xMidYMid meet" version="1.0"><defs><g/></defs><g fill="#ffffff" fill-opacity="1"><g transform="translate(2.229727, 21.807582)"><g><path d="M 5.597656 0.28125 C 8.457031 0.28125 10.191406 -0.964844 10.191406 -2.980469 C 10.191406 -4.710938 8.902344 -5.820312 6.285156 -6.34375 C 4.472656 -6.707031 3.90625 -7.007812 3.90625 -7.652344 C 3.90625 -8.277344 4.472656 -8.640625 5.378906 -8.640625 C 6.40625 -8.640625 7.027344 -8.175781 7.089844 -7.371094 L 10.007812 -7.371094 C 9.867188 -9.605469 8.21875 -10.855469 5.398438 -10.855469 C 2.558594 -10.855469 0.945312 -9.707031 0.945312 -7.652344 C 0.945312 -5.902344 2.15625 -4.855469 4.855469 -4.371094 C 6.484375 -4.089844 7.167969 -3.664062 7.167969 -3 C 7.167969 -2.375 6.605469 -1.992188 5.640625 -1.992188 C 4.511719 -1.992188 3.828125 -2.539062 3.804688 -3.402344 L 0.804688 -3.402344 C 0.804688 -1.1875 2.699219 0.28125 5.597656 0.28125 Z M 5.597656 0.28125 "/></g></g></g><g fill="#ffffff" fill-opacity="1"><g transform="translate(13.245149, 21.807582)"><g><path d="M 1.53125 0 L 4.589844 0 L 4.589844 -10.574219 L 1.53125 -10.574219 Z M 1.085938 -13.996094 C 1.085938 -12.867188 1.894531 -12.082031 3.0625 -12.082031 C 4.230469 -12.082031 5.035156 -12.867188 5.035156 -13.996094 C 5.035156 -15.125 4.230469 -15.910156 3.0625 -15.910156 C 1.894531 -15.910156 1.085938 -15.125 1.085938 -13.996094 Z M 1.085938 -13.996094 "/></g></g></g><g fill="#ffffff" fill-opacity="1"><g transform="translate(19.367069, 21.807582)"><g><path d="M 5.054688 0.203125 C 6.625 0.203125 7.914062 -0.300781 8.820312 -1.226562 L 9.164062 0 L 11.4375 0 L 11.4375 -6.363281 C 11.4375 -9.164062 9.546875 -10.855469 6.382812 -10.855469 C 3.683594 -10.855469 1.914062 -9.566406 1.53125 -7.269531 L 4.472656 -7.269531 C 4.652344 -8.015625 5.417969 -8.519531 6.40625 -8.519531 C 7.613281 -8.519531 8.4375 -7.835938 8.4375 -6.785156 L 8.4375 -6.304688 L 4.613281 -6.304688 C 2.417969 -6.304688 1.007812 -5.035156 1.007812 -3.082031 C 1.007812 -1.046875 2.558594 0.203125 5.054688 0.203125 Z M 4.027344 -3.203125 C 4.027344 -3.925781 4.632812 -4.390625 5.558594 -4.390625 L 8.457031 -4.390625 C 8.398438 -2.960938 7.289062 -1.992188 5.761719 -1.992188 C 4.710938 -1.992188 4.027344 -2.476562 4.027344 -3.203125 Z M 4.027344 -3.203125 "/></g></g></g><g fill="#ffffff" fill-opacity="1"><g transform="translate(32.134482, 21.807582)"><g><path d="M 1.53125 0 L 4.589844 0 L 4.589844 -4.671875 C 4.589844 -6.949219 5.660156 -7.792969 7.410156 -7.792969 L 8.578125 -7.792969 L 8.578125 -10.574219 L 7.429688 -10.574219 C 5.878906 -10.574219 4.894531 -10.148438 4.210938 -9.164062 L 3.804688 -10.574219 L 1.53125 -10.574219 Z M 1.53125 0 "/></g></g></g><g fill="#ffffff" fill-opacity="1"><g transform="translate(41.397904, 21.807582)"><g><path d="M 1.53125 0 L 4.589844 0 L 4.589844 -5.558594 C 4.589844 -7.230469 5.519531 -8.238281 6.929688 -8.238281 C 8.238281 -8.238281 9.023438 -7.351562 9.023438 -5.800781 L 9.023438 0 L 12.082031 0 L 12.082031 -6.101562 C 12.082031 -9.042969 10.433594 -10.855469 7.691406 -10.855469 C 6.503906 -10.855469 5.398438 -10.492188 4.589844 -9.765625 L 4.589844 -14.902344 L 1.53125 -14.902344 Z M 1.53125 0 "/></g></g></g><g fill="#ffffff" fill-opacity="1"><g transform="translate(54.809729, 21.807582)"><g><path d="M 6.523438 0.28125 C 9.125 0.28125 11.175781 -1.046875 12.105469 -3.28125 L 9.003906 -3.28125 C 8.5 -2.578125 7.59375 -2.175781 6.585938 -2.175781 C 5.195312 -2.175781 4.109375 -2.960938 3.828125 -4.410156 L 12.304688 -4.410156 C 12.488281 -8.277344 10.191406 -10.855469 6.566406 -10.855469 C 3.140625 -10.855469 0.785156 -8.578125 0.785156 -5.296875 C 0.785156 -1.992188 3.121094 0.28125 6.523438 0.28125 Z M 3.847656 -6.34375 C 4.1875 -7.632812 5.234375 -8.417969 6.585938 -8.417969 C 7.996094 -8.417969 9.003906 -7.632812 9.34375 -6.34375 Z M 3.847656 -6.34375 "/></g></g></g><g fill="#ffffff" fill-opacity="1"><g transform="translate(67.879217, 21.807582)"><g><path d="M 1.53125 0 L 4.589844 0 L 4.589844 -10.574219 L 1.53125 -10.574219 Z M 1.085938 -13.996094 C 1.085938 -12.867188 1.894531 -12.082031 3.0625 -12.082031 C 4.230469 -12.082031 5.035156 -12.867188 5.035156 -13.996094 C 5.035156 -15.125 4.230469 -15.910156 3.0625 -15.910156 C 1.894531 -15.910156 1.085938 -15.125 1.085938 -13.996094 Z M 1.085938 -13.996094 "/></g></g></g><g fill="#ffffff" fill-opacity="1"><g transform="translate(74.009438, 21.807582)"><g/></g></g><g fill="#ffffff" fill-opacity="1"><g transform="translate(76.676332, 21.807582)"><g><path d="M 4.089844 0 L 5.71875 0 L 8.742188 -7.953125 L 10.109375 -4.308594 L 11.78125 0 L 13.394531 0 L 17.136719 -10.453125 L 15.367188 -10.453125 L 13.675781 -5.71875 L 12.566406 -2.539062 L 9.503906 -10.453125 L 7.953125 -10.453125 L 6.164062 -5.71875 L 4.933594 -2.515625 L 3.804688 -5.71875 L 2.136719 -10.453125 L 0.34375 -10.453125 Z M 4.089844 0 "/></g></g></g><g fill="#ffffff" fill-opacity="1"><g transform="translate(94.156011, 21.807582)"><g><path d="M 5.296875 0.160156 C 6.988281 0.160156 8.316406 -0.382812 9.265625 -1.449219 L 9.445312 0 L 10.835938 0 L 10.835938 -6.644531 C 10.835938 -9.0625 9.003906 -10.714844 6.261719 -10.714844 C 3.988281 -10.714844 2.277344 -9.484375 1.8125 -7.472656 L 3.523438 -7.472656 C 3.867188 -8.5 4.933594 -9.144531 6.285156 -9.144531 C 8.054688 -9.144531 9.144531 -8.15625 9.144531 -6.523438 L 9.144531 -6.140625 L 4.875 -6.140625 C 2.699219 -6.140625 1.269531 -4.914062 1.269531 -3.019531 C 1.269531 -1.046875 2.777344 0.160156 5.296875 0.160156 Z M 2.960938 -3.042969 C 2.960938 -4.027344 3.765625 -4.652344 4.933594 -4.652344 L 9.164062 -4.652344 C 9.101562 -2.71875 7.53125 -1.347656 5.355469 -1.347656 C 3.886719 -1.347656 2.960938 -2.015625 2.960938 -3.042969 Z M 2.960938 -3.042969 "/></g></g></g><g fill="#ffffff" fill-opacity="1"><g transform="translate(106.641494, 21.807582)"><g><path d="M 1.871094 0 L 3.566406 0 L 3.566406 -4.855469 C 3.566406 -7.835938 5.054688 -8.882812 6.949219 -8.882812 L 7.976562 -8.882812 L 7.976562 -10.453125 L 7.027344 -10.453125 C 5.257812 -10.453125 4.210938 -9.886719 3.464844 -8.640625 L 3.261719 -10.453125 L 1.871094 -10.453125 Z M 1.871094 0 "/></g></g></g><g fill="#ffffff" fill-opacity="1"><g transform="translate(115.421613, 21.807582)"><g><path d="M 1.871094 0 L 3.566406 0 L 3.566406 -4.511719 L 4.8125 -4.511719 C 5.296875 -4.511719 5.738281 -4.53125 6.140625 -4.613281 L 9.023438 0 L 11.035156 0 L 7.773438 -5.175781 C 8.539062 -5.660156 9.082031 -6.445312 9.503906 -7.59375 L 10.554688 -10.453125 L 8.742188 -10.453125 L 7.953125 -8.21875 C 7.371094 -6.523438 6.566406 -6.082031 4.875 -6.082031 L 3.566406 -6.082031 L 3.566406 -14.902344 L 1.871094 -14.902344 Z M 1.871094 0 "/></g></g></g><g fill="#ffffff" fill-opacity="1"><g transform="translate(127.161997, 21.807582)"><g><path d="M 6.585938 0.261719 C 9.828125 0.261719 12.125 -2.035156 12.125 -5.234375 C 12.125 -8.4375 9.828125 -10.714844 6.585938 -10.714844 C 3.34375 -10.714844 1.046875 -8.4375 1.046875 -5.234375 C 1.046875 -2.035156 3.34375 0.261719 6.585938 0.261719 Z M 2.738281 -5.234375 C 2.738281 -7.511719 4.328125 -9.101562 6.585938 -9.101562 C 8.839844 -9.101562 10.433594 -7.511719 10.433594 -5.234375 C 10.433594 -2.941406 8.839844 -1.371094 6.585938 -1.371094 C 4.328125 -1.371094 2.738281 -2.941406 2.738281 -5.234375 Z M 2.738281 -5.234375 "/></g></g></g><g fill="#ffffff" fill-opacity="1"><g transform="translate(140.332171, 21.807582)"><g><path d="M 2.878906 -11.519531 L 2.878906 -10.453125 L 0.605469 -10.453125 L 0.605469 -8.902344 L 2.878906 -8.902344 L 2.878906 0 L 4.570312 0 L 4.570312 -8.902344 L 8.21875 -8.902344 L 8.21875 -10.453125 L 4.570312 -10.453125 L 4.570312 -11.417969 C 4.570312 -12.929688 5.214844 -13.574219 6.6875 -13.574219 L 8.316406 -13.574219 L 8.316406 -15.164062 L 6.523438 -15.164062 C 4.167969 -15.164062 2.878906 -13.894531 2.878906 -11.519531 Z M 2.878906 -11.519531 "/></g></g></g><g fill="#ffffff" fill-opacity="1"><g transform="translate(148.850494, 21.807582)"><g><path d="M 2.878906 -11.519531 L 2.878906 -10.453125 L 0.605469 -10.453125 L 0.605469 -8.902344 L 2.878906 -8.902344 L 2.878906 0 L 4.570312 0 L 4.570312 -8.902344 L 8.21875 -8.902344 L 8.21875 -10.453125 L 4.570312 -10.453125 L 4.570312 -11.417969 C 4.570312 -12.929688 5.214844 -13.574219 6.6875 -13.574219 L 8.316406 -13.574219 L 8.316406 -15.164062 L 6.523438 -15.164062 C 4.167969 -15.164062 2.878906 -13.894531 2.878906 -11.519531 Z M 2.878906 -11.519531 "/></g></g></g><g fill="#ff3131" fill-opacity="1"><g transform="translate(157.385659, 21.807582)"><g><path d="M 2.699219 0.222656 C 3.785156 0.222656 4.570312 -0.542969 4.570312 -1.589844 C 4.570312 -2.636719 3.785156 -3.421875 2.699219 -3.421875 C 1.589844 -3.421875 0.824219 -2.636719 0.824219 -1.589844 C 0.824219 -0.542969 1.589844 0.222656 2.699219 0.222656 Z M 2.699219 0.222656 "/></g></g></g></svg>